<svg xmlns="http://www.w3.org/2000/svg" xmlns:xlink="http://www.w3.org/1999/xlink" width="500" zoomAndPan="magnify" viewBox="0 0 375 374.999991" height="500" preserveAspectRatio="xMidYMid meet" version="1.0"><defs><g/><clipPath id="4f65471717"><path d="M 287.066406 188.25 L 291.136719 188.25 L 291.136719 192.320312 L 287.066406 192.320312 Z M 287.066406 188.25 " clip-rule="nonzero"/></clipPath><clipPath id="b274733633"><path d="M 289.101562 188.25 C 287.976562 188.25 287.066406 189.160156 287.066406 190.285156 C 287.066406 191.40625 287.976562 192.320312 289.101562 192.320312 C 290.226562 192.320312 291.136719 191.40625 291.136719 190.285156 C 291.136719 189.160156 290.226562 188.25 289.101562 188.25 Z M 289.101562 188.25 " clip-rule="nonzero"/></clipPath><clipPath id="df5f1f5a2e"><path d="M 48 200 L 291 200 L 291 239 L 48 239 Z M 48 200 " clip-rule="nonzero"/></clipPath><clipPath id="5a91d100c2"><path d="M 48.296875 237.792969 L 290.765625 200.964844 L 290.992188 202.449219 L 48.523438 239.277344 Z M 48.296875 237.792969 " clip-rule="nonzero"/></clipPath><clipPath id="3c90ad6980"><path d="M 48.296875 237.792969 L 290.765625 200.964844 L 290.992188 202.449219 L 48.523438 239.277344 Z M 48.296875 237.792969 " clip-rule="nonzero"/></clipPath></defs><g fill="#ffffff" fill-opacity="1"><g transform="translate(79.129334, 232.165777)"><g><path d="M 6.171875 -8.15625 C 4.367188 -2.300781 3.414062 0.789062 3.3125 1.125 C 3.195312 1.476562 3.078125 1.851562 2.953125 2.25 C 2.921875 2.351562 2.898438 2.457031 2.890625 2.5625 C 2.648438 3.3125 2.414062 4.066406 2.1875 4.828125 C 0.78125 9.421875 -0.53125 14.019531 -1.75 18.625 C -1.738281 18.675781 -1.75 18.734375 -1.78125 18.796875 C -1.78125 18.898438 -1.804688 19.007812 -1.859375 19.125 C -2.066406 19.519531 -2.363281 19.71875 -2.75 19.71875 C -2.84375 19.769531 -2.945312 19.785156 -3.0625 19.765625 C -3.269531 19.765625 -3.4375 19.707031 -3.5625 19.59375 C -3.695312 19.488281 -3.75 19.316406 -3.71875 19.078125 C -3.582031 18.191406 -3.390625 17.300781 -3.140625 16.40625 C -2.265625 13.363281 -1.40625 10.300781 -0.5625 7.21875 C -0.0507812 5.394531 0.460938 3.5625 0.984375 1.71875 C 1.222656 0.976562 1.945312 -1.359375 3.15625 -5.296875 C 4.363281 -9.234375 5.066406 -11.546875 5.265625 -12.234375 C 6.847656 -17.453125 8.5625 -22.644531 10.40625 -27.8125 C 11.582031 -31.1875 12.734375 -34.578125 13.859375 -37.984375 C 13.972656 -38.390625 14.148438 -38.765625 14.390625 -39.109375 C 14.578125 -39.390625 14.828125 -39.578125 15.140625 -39.671875 C 15.234375 -39.742188 15.335938 -39.769531 15.453125 -39.75 C 15.703125 -39.832031 15.910156 -39.796875 16.078125 -39.640625 C 16.242188 -39.492188 16.304688 -39.300781 16.265625 -39.0625 C 16.222656 -38.875 16.175781 -38.6875 16.125 -38.5 C 15.84375 -37.320312 15.507812 -36.148438 15.125 -34.984375 C 13.820312 -31.046875 12.503906 -27.113281 11.171875 -23.1875 C 10.460938 -21.175781 9.78125 -19.160156 9.125 -17.140625 C 8.78125 -16.160156 8.453125 -15.175781 8.140625 -14.1875 C 8.035156 -13.832031 7.921875 -13.46875 7.796875 -13.09375 C 7.765625 -13.019531 7.742188 -12.960938 7.734375 -12.921875 C 7.679688 -12.785156 7.644531 -12.648438 7.625 -12.515625 C 7.601562 -12.378906 7.625 -12.265625 7.6875 -12.171875 C 7.789062 -12.078125 7.90625 -12.023438 8.03125 -12.015625 C 8.164062 -12.066406 8.296875 -12.113281 8.421875 -12.15625 C 8.441406 -12.195312 8.484375 -12.234375 8.546875 -12.265625 C 9.878906 -12.910156 11.210938 -13.539062 12.546875 -14.15625 C 16.285156 -15.957031 19.992188 -17.804688 23.671875 -19.703125 C 27.347656 -21.597656 30.960938 -23.628906 34.515625 -25.796875 C 36.742188 -27.148438 38.9375 -28.5625 41.09375 -30.03125 C 43.25 -31.5 45.34375 -33.070312 47.375 -34.75 C 49.0625 -36.15625 50.613281 -37.734375 52.03125 -39.484375 C 52.726562 -40.347656 53.3125 -41.289062 53.78125 -42.3125 C 54.71875 -44.363281 54.507812 -46.101562 53.15625 -47.53125 C 52.34375 -48.375 51.378906 -49.019531 50.265625 -49.46875 C 48.578125 -50.226562 46.796875 -50.738281 44.921875 -51 C 40.347656 -51.625 35.679688 -51.734375 30.921875 -51.328125 C 28.117188 -51.066406 25.300781 -50.71875 22.46875 -50.28125 C 20.945312 -50.03125 19.414062 -49.75 17.875 -49.4375 C 15.570312 -48.957031 13.28125 -48.375 11 -47.6875 C 8.71875 -47 6.476562 -46.097656 4.28125 -44.984375 C 2.894531 -44.273438 1.554688 -43.4375 0.265625 -42.46875 C -0.722656 -41.78125 -1.554688 -40.945312 -2.234375 -39.96875 C -2.429688 -39.664062 -2.679688 -39.429688 -2.984375 -39.265625 C -3.117188 -39.171875 -3.25 -39.128906 -3.375 -39.140625 C -3.625 -39.066406 -3.851562 -39.097656 -4.0625 -39.234375 C -4.332031 -39.460938 -4.378906 -39.742188 -4.203125 -40.078125 C -3.910156 -40.617188 -3.5625 -41.109375 -3.15625 -41.546875 C -2.757812 -41.984375 -2.320312 -42.382812 -1.84375 -42.75 C 0.269531 -44.476562 2.535156 -45.863281 4.953125 -46.90625 C 7.910156 -48.1875 10.914062 -49.164062 13.96875 -49.84375 C 16.914062 -50.570312 19.894531 -51.191406 22.90625 -51.703125 L 22.96875 -51.71875 C 23.539062 -51.8125 24.117188 -51.90625 24.703125 -52 C 27.585938 -52.414062 30.457031 -52.726562 33.3125 -52.9375 C 36.175781 -53.15625 39.039062 -53.179688 41.90625 -53.015625 C 43.375 -52.929688 44.832031 -52.773438 46.28125 -52.546875 C 47.726562 -52.328125 49.140625 -51.984375 50.515625 -51.515625 C 52.035156 -51.054688 53.40625 -50.367188 54.625 -49.453125 C 57.320312 -47.304688 57.65625 -44.503906 55.625 -41.046875 C 54.6875 -39.503906 53.566406 -38.101562 52.265625 -36.84375 C 50.648438 -35.21875 48.960938 -33.71875 47.203125 -32.34375 C 45.441406 -30.976562 43.628906 -29.6875 41.765625 -28.46875 C 37.921875 -25.894531 33.992188 -23.503906 29.984375 -21.296875 C 25.984375 -19.085938 21.941406 -17 17.859375 -15.03125 C 14.660156 -13.457031 11.460938 -11.9375 8.265625 -10.46875 C 7.753906 -10.25 7.316406 -9.957031 6.953125 -9.59375 C 6.585938 -9.226562 6.328125 -8.75 6.171875 -8.15625 Z M 66.984375 -3.25 C 68.242188 -2.46875 61.378906 -3.050781 46.390625 -5 C 36.117188 -6.394531 25.78125 -7.609375 15.375 -8.640625 C 12.488281 -8.898438 9.585938 -9.128906 6.671875 -9.328125 C 5.503906 -9.429688 4.335938 -9.523438 3.171875 -9.609375 C 2.785156 -9.628906 2.394531 -9.632812 2 -9.625 C 1.925781 -9.613281 1.84375 -9.617188 1.75 -9.640625 C 1.507812 -9.597656 1.5 -9.941406 1.71875 -10.671875 C 1.9375 -11.398438 2.304688 -11.679688 2.828125 -11.515625 C 3.515625 -11.273438 5.09375 -11.015625 7.5625 -10.734375 C 10.039062 -10.460938 13.242188 -10.125 17.171875 -9.71875 C 24.554688 -9.007812 33.410156 -8.007812 43.734375 -6.71875 C 57.972656 -5.1875 65.722656 -4.03125 66.984375 -3.25 Z M 66.984375 -3.25 "/></g></g><g transform="translate(117.491831, 225.934798)"><g><path d="M 5.6875 -8.4375 C 5.195312 -7.601562 4.578125 -6.8125 3.828125 -6.0625 C 3.085938 -5.3125 2.203125 -4.742188 1.171875 -4.359375 C 0.148438 -3.972656 -0.679688 -3.914062 -1.328125 -4.1875 C -1.984375 -4.457031 -2.234375 -5.257812 -2.078125 -6.59375 C -1.835938 -7.988281 -1.40625 -9.347656 -0.78125 -10.671875 C -0.632812 -10.960938 -0.398438 -11.1875 -0.078125 -11.34375 C 0.160156 -11.4375 0.390625 -11.425781 0.609375 -11.3125 C 0.828125 -11.195312 0.929688 -11.023438 0.921875 -10.796875 C 0.816406 -10.347656 0.691406 -9.898438 0.546875 -9.453125 C 0.410156 -9.003906 0.320312 -8.710938 0.28125 -8.578125 C -0.0195312 -7.765625 -0.179688 -6.941406 -0.203125 -6.109375 C -0.128906 -5.648438 0.488281 -5.722656 1.65625 -6.328125 C 2.820312 -6.929688 3.90625 -7.867188 4.90625 -9.140625 C 5.90625 -10.410156 6.410156 -10.816406 6.421875 -10.359375 C 6.429688 -9.910156 6.1875 -9.269531 5.6875 -8.4375 Z M 1.75 -13.75 C 1.6875 -13.6875 1.566406 -13.609375 1.390625 -13.515625 C 1.222656 -13.429688 1.039062 -13.351562 0.84375 -13.28125 C 0.65625 -13.21875 0.492188 -13.222656 0.359375 -13.296875 C 0.234375 -13.378906 0.203125 -13.566406 0.265625 -13.859375 C 0.378906 -14.367188 0.503906 -14.820312 0.640625 -15.21875 C 0.773438 -15.625 0.972656 -16.078125 1.234375 -16.578125 C 1.410156 -16.796875 1.617188 -16.929688 1.859375 -16.984375 C 2.097656 -17.035156 2.3125 -17.003906 2.5 -16.890625 C 2.6875 -16.785156 2.765625 -16.601562 2.734375 -16.34375 C 2.617188 -15.375 2.289062 -14.507812 1.75 -13.75 Z M 1.75 -13.75 "/></g></g><g transform="translate(124.258622, 224.83571)"><g><path d="M 9.484375 -10.140625 C 8.222656 -8.054688 6.921875 -6.457031 5.578125 -5.34375 C 4.234375 -4.238281 2.691406 -3.695312 0.953125 -3.71875 C -0.785156 -3.738281 -1.671875 -4.765625 -1.703125 -6.796875 C -1.648438 -7.816406 -1.519531 -8.835938 -1.3125 -9.859375 C -0.769531 -12.210938 -0.222656 -14.550781 0.328125 -16.875 C 0.492188 -17.71875 0.679688 -18.5625 0.890625 -19.40625 C 0.941406 -19.59375 0.988281 -19.78125 1.03125 -19.96875 C 1.101562 -20.269531 1.179688 -20.582031 1.265625 -20.90625 C 1.367188 -21.445312 1.125 -21.679688 0.53125 -21.609375 C 0.195312 -21.554688 -0.128906 -21.503906 -0.453125 -21.453125 C -0.597656 -21.421875 -0.765625 -21.390625 -0.953125 -21.359375 C -1.128906 -21.316406 -1.304688 -21.269531 -1.484375 -21.21875 C -1.773438 -21.132812 -2.066406 -21.066406 -2.359375 -21.015625 C -2.660156 -20.972656 -2.953125 -21.007812 -3.234375 -21.125 C -3.304688 -21.132812 -3.367188 -21.171875 -3.421875 -21.234375 C -3.472656 -21.296875 -3.503906 -21.367188 -3.515625 -21.453125 C -3.503906 -21.492188 -3.476562 -21.550781 -3.4375 -21.625 C -3.394531 -21.695312 -3.332031 -21.753906 -3.25 -21.796875 C -3.019531 -21.941406 -2.765625 -22.054688 -2.484375 -22.140625 C -1.773438 -22.296875 -1.070312 -22.4375 -0.375 -22.5625 C -0.09375 -22.613281 0.148438 -22.65625 0.359375 -22.6875 C 0.816406 -22.757812 1.15625 -22.832031 1.375 -22.90625 C 1.601562 -22.976562 1.765625 -23.128906 1.859375 -23.359375 C 1.960938 -23.585938 2.070312 -23.929688 2.1875 -24.390625 C 2.257812 -24.640625 2.351562 -24.914062 2.46875 -25.21875 C 2.707031 -26.09375 2.953125 -26.984375 3.203125 -27.890625 C 3.304688 -28.296875 3.421875 -28.695312 3.546875 -29.09375 C 3.648438 -29.46875 3.847656 -29.78125 4.140625 -30.03125 C 4.421875 -30.238281 4.691406 -30.273438 4.953125 -30.140625 C 5.035156 -30.097656 5.101562 -30.023438 5.15625 -29.921875 C 5.21875 -29.828125 5.253906 -29.738281 5.265625 -29.65625 C 5.335938 -29.207031 5.289062 -28.75 5.125 -28.28125 C 5.09375 -28.1875 5.0625 -28.066406 5.03125 -27.921875 C 4.945312 -27.484375 4.859375 -27.035156 4.765625 -26.578125 C 4.546875 -25.742188 4.351562 -24.890625 4.1875 -24.015625 C 4.125 -23.847656 4.140625 -23.710938 4.234375 -23.609375 C 4.335938 -23.503906 4.460938 -23.460938 4.609375 -23.484375 C 5.429688 -23.585938 6.238281 -23.703125 7.03125 -23.828125 C 7.4375 -23.898438 7.835938 -23.96875 8.234375 -24.03125 C 9.503906 -24.21875 10.046875 -24.128906 9.859375 -23.765625 C 9.710938 -23.523438 9.539062 -23.375 9.34375 -23.3125 C 9.15625 -23.257812 8.953125 -23.234375 8.734375 -23.234375 C 8.597656 -23.210938 8.46875 -23.191406 8.34375 -23.171875 C 7.0625 -22.867188 5.785156 -22.609375 4.515625 -22.390625 C 3.929688 -22.285156 3.582031 -21.953125 3.46875 -21.390625 C 3.351562 -20.859375 3.234375 -20.316406 3.109375 -19.765625 C 2.921875 -19.046875 2.757812 -18.351562 2.625 -17.6875 C 2.46875 -17.050781 2.304688 -16.398438 2.140625 -15.734375 C 1.734375 -14.066406 1.351562 -12.40625 1 -10.75 C 0.78125 -9.675781 0.648438 -8.585938 0.609375 -7.484375 C 0.429688 -5.472656 1.296875 -4.859375 3.203125 -5.640625 C 5.066406 -6.410156 6.878906 -8.132812 8.640625 -10.8125 C 9.453125 -11.570312 9.734375 -11.347656 9.484375 -10.140625 Z M 9.484375 -10.140625 "/></g></g><g transform="translate(134.113845, 223.234988)"><g><path d="M 8.8125 -8.265625 C 8.25 -7.492188 7.5625 -6.800781 6.75 -6.1875 C 5.9375 -5.582031 5.238281 -5.160156 4.65625 -4.921875 C 4.070312 -4.679688 3.46875 -4.492188 2.84375 -4.359375 C 1.820312 -4.148438 0.859375 -4.132812 -0.046875 -4.3125 C -1.546875 -4.664062 -2.207031 -5.675781 -2.03125 -7.34375 C -1.851562 -8.78125 -1.207031 -9.984375 -0.09375 -10.953125 C 1.019531 -11.921875 2.238281 -12.503906 3.5625 -12.703125 C 3.5625 -12.703125 3.570312 -12.703125 3.59375 -12.703125 C 3.925781 -12.785156 4.253906 -12.816406 4.578125 -12.796875 C 5.109375 -12.691406 5.476562 -12.441406 5.6875 -12.046875 C 5.894531 -11.660156 5.878906 -11.1875 5.640625 -10.625 C 5.078125 -9.375 4.171875 -8.585938 2.921875 -8.265625 C 2.085938 -8.046875 1.265625 -7.957031 0.453125 -8 C 0.304688 -7.988281 0.179688 -7.921875 0.078125 -7.796875 C -0.0234375 -7.679688 -0.078125 -7.539062 -0.078125 -7.375 C -0.148438 -6.34375 0.257812 -5.757812 1.15625 -5.625 C 2.257812 -5.425781 3.34375 -5.601562 4.40625 -6.15625 C 5.632812 -6.769531 6.738281 -7.726562 7.71875 -9.03125 C 8.707031 -10.34375 9.296875 -10.972656 9.484375 -10.921875 C 9.679688 -10.878906 9.773438 -10.675781 9.765625 -10.3125 C 9.691406 -9.71875 9.375 -9.035156 8.8125 -8.265625 Z M 0.96875 -9.859375 C 0.90625 -9.765625 0.867188 -9.664062 0.859375 -9.5625 C 0.847656 -9.457031 0.898438 -9.378906 1.015625 -9.328125 C 1.453125 -9.160156 1.898438 -9.144531 2.359375 -9.28125 C 2.828125 -9.425781 3.203125 -9.671875 3.484375 -10.015625 C 3.773438 -10.367188 3.859375 -10.75 3.734375 -11.15625 C 3.679688 -11.3125 3.585938 -11.398438 3.453125 -11.421875 C 3.316406 -11.441406 3.191406 -11.425781 3.078125 -11.375 C 2.234375 -11.082031 1.53125 -10.578125 0.96875 -9.859375 Z M 0.96875 -9.859375 "/></g></g><g transform="translate(144.211979, 221.594812)"><g><path d="M 6.984375 -10.15625 C 5.253906 -9.175781 4.019531 -8.40625 3.28125 -7.84375 C 2.738281 -7.457031 2.4375 -7.160156 2.375 -6.953125 C 2.320312 -6.753906 2.445312 -6.421875 2.75 -5.953125 C 2.757812 -5.929688 2.785156 -5.898438 2.828125 -5.859375 C 3.179688 -5.273438 3.4375 -4.660156 3.59375 -4.015625 C 3.882812 -2.703125 2.898438 -1.585938 0.640625 -0.671875 C -1.609375 0.242188 -3.171875 0.515625 -4.046875 0.140625 C -4.921875 -0.222656 -5.265625 -0.8125 -5.078125 -1.625 C -4.898438 -2.445312 -4.234375 -3.351562 -3.078125 -4.34375 C -1.921875 -5.34375 -1.148438 -6.050781 -0.765625 -6.46875 C -0.390625 -6.882812 -0.328125 -7.296875 -0.578125 -7.703125 C -0.648438 -7.828125 -0.738281 -7.960938 -0.84375 -8.109375 C -1.039062 -8.453125 -1.253906 -8.796875 -1.484375 -9.140625 C -1.898438 -9.773438 -2.140625 -10.4375 -2.203125 -11.125 C -2.273438 -11.8125 -2.117188 -12.421875 -1.734375 -12.953125 C -1.347656 -13.484375 -0.679688 -13.84375 0.265625 -14.03125 C 0.804688 -14.132812 1.300781 -14.140625 1.75 -14.046875 C 2.207031 -13.953125 2.601562 -13.703125 2.9375 -13.296875 C 3.195312 -13.015625 3.175781 -12.71875 2.875 -12.40625 C 2.6875 -12.1875 2.457031 -12.117188 2.1875 -12.203125 C 2.019531 -12.253906 1.847656 -12.328125 1.671875 -12.421875 C 1.660156 -12.460938 1.65625 -12.484375 1.65625 -12.484375 C 1.582031 -12.515625 1.515625 -12.550781 1.453125 -12.59375 C 1.359375 -12.6875 1.265625 -12.757812 1.171875 -12.8125 C 0.847656 -12.96875 0.535156 -12.976562 0.234375 -12.84375 C -0.0546875 -12.71875 -0.242188 -12.445312 -0.328125 -12.03125 C -0.390625 -11.71875 -0.394531 -11.40625 -0.34375 -11.09375 C -0.25 -10.707031 -0.0976562 -10.347656 0.109375 -10.015625 C 0.234375 -9.816406 0.351562 -9.628906 0.46875 -9.453125 C 0.75 -8.972656 0.96875 -8.644531 1.125 -8.46875 C 1.289062 -8.300781 1.457031 -8.25 1.625 -8.3125 C 1.800781 -8.375 3.34375 -9.226562 6.25 -10.875 C 6.90625 -11.21875 7.148438 -10.976562 6.984375 -10.15625 Z M 0.515625 -2.3125 C 1.285156 -2.726562 1.546875 -3.328125 1.296875 -4.109375 C 1.285156 -4.171875 1.257812 -4.238281 1.21875 -4.3125 C 1.101562 -4.738281 0.957031 -5.054688 0.78125 -5.265625 C 0.601562 -5.472656 0.289062 -5.414062 -0.15625 -5.09375 C -1.238281 -4.21875 -2.21875 -3.238281 -3.09375 -2.15625 C -3.15625 -2.0625 -3.210938 -1.972656 -3.265625 -1.890625 C -3.265625 -1.890625 -3.269531 -1.875 -3.28125 -1.84375 C -3.332031 -1.738281 -3.328125 -1.628906 -3.265625 -1.515625 C -3.203125 -1.398438 -3.085938 -1.359375 -2.921875 -1.390625 C -1.691406 -1.398438 -0.546875 -1.707031 0.515625 -2.3125 Z M 0.515625 -2.3125 "/></g></g><g transform="translate(151.898359, 220.346361)"><g><path d="M 12.78125 -10.375 C 12.59375 -10.144531 12.398438 -9.945312 12.203125 -9.78125 C 11.535156 -9.1875 10.925781 -8.707031 10.375 -8.34375 C 9.820312 -7.976562 9.160156 -7.59375 8.390625 -7.1875 C 7.253906 -6.632812 6.472656 -6.585938 6.046875 -7.046875 C 5.617188 -7.503906 5.441406 -8.21875 5.515625 -9.1875 C 5.628906 -10.570312 5.660156 -11.570312 5.609375 -12.1875 C 5.566406 -12.8125 5.332031 -12.988281 4.90625 -12.71875 C 4.476562 -12.445312 3.75 -11.679688 2.71875 -10.421875 C 1.28125 -8.703125 0.117188 -6.8125 -0.765625 -4.75 C -0.890625 -4.476562 -1.039062 -4.242188 -1.21875 -4.046875 C -1.40625 -3.847656 -1.664062 -3.722656 -2 -3.671875 C -2.300781 -3.617188 -2.535156 -3.660156 -2.703125 -3.796875 C -2.878906 -3.941406 -2.925781 -4.164062 -2.84375 -4.46875 C -2.40625 -6.070312 -1.945312 -7.671875 -1.46875 -9.265625 C -0.65625 -12.046875 0.132812 -14.800781 0.90625 -17.53125 C 1.488281 -19.582031 2.0625 -21.628906 2.625 -23.671875 C 2.96875 -24.890625 3.300781 -26.101562 3.625 -27.3125 C 3.65625 -27.40625 3.691406 -27.507812 3.734375 -27.625 C 3.753906 -27.757812 3.785156 -27.894531 3.828125 -28.03125 C 3.878906 -28.164062 3.9375 -28.3125 4 -28.46875 C 4.039062 -28.613281 4.148438 -28.742188 4.328125 -28.859375 C 4.503906 -28.972656 4.6875 -29.054688 4.875 -29.109375 C 5.070312 -29.160156 5.226562 -29.175781 5.34375 -29.15625 C 5.5 -29.0625 5.597656 -28.957031 5.640625 -28.84375 C 5.679688 -28.738281 5.679688 -28.617188 5.640625 -28.484375 C 5.617188 -28.453125 5.613281 -28.414062 5.625 -28.375 C 5.5 -27.632812 5.363281 -26.925781 5.21875 -26.25 C 4.320312 -22.476562 3.28125 -18.734375 2.09375 -15.015625 C 2.007812 -14.765625 1.910156 -14.460938 1.796875 -14.109375 C 1.609375 -13.597656 1.441406 -13.097656 1.296875 -12.609375 C 1.148438 -12.128906 1.125 -11.820312 1.21875 -11.6875 C 1.320312 -11.5625 1.648438 -11.734375 2.203125 -12.203125 C 2.359375 -12.367188 2.503906 -12.53125 2.640625 -12.6875 C 3.078125 -13.09375 3.503906 -13.476562 3.921875 -13.84375 C 4.296875 -14.1875 4.738281 -14.410156 5.25 -14.515625 C 6.445312 -14.796875 7.21875 -14.351562 7.5625 -13.1875 C 7.695312 -12.726562 7.753906 -12.257812 7.734375 -11.78125 C 7.722656 -11.300781 7.6875 -10.828125 7.625 -10.359375 C 7.625 -10.234375 7.625 -10.101562 7.625 -9.96875 C 7.550781 -9.144531 7.679688 -8.695312 8.015625 -8.625 C 8.359375 -8.5625 8.789062 -8.703125 9.3125 -9.046875 C 9.84375 -9.390625 10.378906 -9.773438 10.921875 -10.203125 C 11.285156 -10.492188 11.609375 -10.734375 11.890625 -10.921875 C 12.171875 -11.117188 12.390625 -11.222656 12.546875 -11.234375 C 12.835938 -11.234375 12.984375 -11.140625 12.984375 -10.953125 C 12.984375 -10.765625 12.914062 -10.570312 12.78125 -10.375 Z M 12.78125 -10.375 "/></g></g><g transform="translate(165.136977, 218.196095)"><g/></g><g transform="translate(178.254141, 216.065557)"><g><path d="M 62.109375 -56.421875 C 63.734375 -53.441406 64 -50.242188 62.90625 -46.828125 C 62.8125 -46.503906 62.675781 -46.203125 62.5 -45.921875 C 62.320312 -45.648438 62.054688 -45.441406 61.703125 -45.296875 C 61.441406 -45.203125 61.203125 -45.222656 60.984375 -45.359375 C 60.765625 -45.503906 60.660156 -45.691406 60.671875 -45.921875 C 60.753906 -46.378906 60.84375 -46.820312 60.9375 -47.25 C 60.96875 -47.476562 61.023438 -47.703125 61.109375 -47.921875 C 61.535156 -50.222656 61.320312 -52.40625 60.46875 -54.46875 C 59.519531 -56.8125 57.796875 -58.171875 55.296875 -58.546875 C 53.847656 -58.753906 52.421875 -58.757812 51.015625 -58.5625 C 49.609375 -58.363281 48.203125 -58.023438 46.796875 -57.546875 C 42.535156 -56.015625 38.441406 -54.023438 34.515625 -51.578125 C 28.472656 -47.910156 22.84375 -43.644531 17.625 -38.78125 C 13.15625 -34.601562 9.273438 -29.910156 5.984375 -24.703125 C 4.835938 -22.898438 3.84375 -21.019531 3 -19.0625 C 2.15625 -17.101562 1.550781 -15.066406 1.1875 -12.953125 C 0.851562 -10.835938 0.863281 -8.765625 1.21875 -6.734375 C 1.65625 -4.546875 2.507812 -2.757812 3.78125 -1.375 C 5.0625 0 6.632812 0.898438 8.5 1.328125 C 10.363281 1.765625 12.359375 1.625 14.484375 0.90625 C 17.210938 -0.0195312 19.703125 -1.453125 21.953125 -3.390625 C 23.285156 -4.492188 24.503906 -5.695312 25.609375 -7 C 26.722656 -8.300781 27.773438 -9.664062 28.765625 -11.09375 C 31.148438 -14.5625 33.195312 -18.222656 34.90625 -22.078125 C 35.882812 -24.335938 36.625 -26.6875 37.125 -29.125 C 37.15625 -29.207031 37.175781 -29.304688 37.1875 -29.421875 C 37.300781 -29.984375 37.445312 -30.539062 37.625 -31.09375 C 37.914062 -31.863281 38.5 -32.273438 39.375 -32.328125 C 39.914062 -32.347656 40.265625 -32.085938 40.421875 -31.546875 C 40.554688 -30.734375 40.523438 -29.90625 40.328125 -29.0625 C 39.296875 -23.226562 38.082031 -17.425781 36.6875 -11.65625 C 36.664062 -11.519531 36.640625 -11.382812 36.609375 -11.25 C 36.515625 -10.976562 36.441406 -10.707031 36.390625 -10.4375 C 36.367188 -10.351562 36.359375 -10.269531 36.359375 -10.1875 C 36.265625 -9.875 36.234375 -9.539062 36.265625 -9.1875 C 36.285156 -9.0625 36.34375 -8.976562 36.4375 -8.9375 C 36.539062 -8.894531 36.660156 -8.859375 36.796875 -8.828125 C 36.972656 -8.796875 37.113281 -8.738281 37.21875 -8.65625 C 37.257812 -8.664062 37.289062 -8.65625 37.3125 -8.625 C 37.394531 -8.5625 37.46875 -8.5 37.53125 -8.4375 C 37.59375 -8.375 37.582031 -8.265625 37.5 -8.109375 C 37.445312 -7.972656 37.359375 -7.859375 37.234375 -7.765625 C 37.078125 -7.648438 36.914062 -7.582031 36.75 -7.5625 C 36.25 -7.539062 35.878906 -7.367188 35.640625 -7.046875 C 35.398438 -6.734375 35.226562 -6.359375 35.125 -5.921875 C 34.664062 -4.367188 34.195312 -2.816406 33.71875 -1.265625 C 32.726562 1.972656 31.546875 5.164062 30.171875 8.3125 C 29.328125 10.28125 28.320312 12.171875 27.15625 13.984375 C 25.957031 15.898438 24.425781 17.488281 22.5625 18.75 C 21.539062 19.4375 20.46875 19.90625 19.34375 20.15625 C 18.039062 20.46875 16.914062 20.328125 15.96875 19.734375 C 15.03125 19.148438 14.398438 18.203125 14.078125 16.890625 C 13.816406 15.796875 13.78125 14.648438 13.96875 13.453125 C 14.414062 11.160156 15.273438 9.039062 16.546875 7.09375 C 19.765625 1.9375 23.929688 -2.191406 29.046875 -5.296875 C 29.898438 -5.796875 30.757812 -6.257812 31.625 -6.6875 C 31.71875 -6.769531 31.828125 -6.832031 31.953125 -6.875 C 32.609375 -7.175781 33.039062 -7.671875 33.25 -8.359375 C 33.414062 -9.078125 33.59375 -9.785156 33.78125 -10.484375 C 34.34375 -12.390625 34.769531 -14.3125 35.0625 -16.25 C 35.070312 -16.3125 35.0625 -16.363281 35.03125 -16.40625 C 34.988281 -16.425781 34.96875 -16.445312 34.96875 -16.46875 C 34.695312 -16.375 34.492188 -16.222656 34.359375 -16.015625 C 34.234375 -15.816406 34.101562 -15.601562 33.96875 -15.375 C 33.914062 -15.238281 33.847656 -15.101562 33.765625 -14.96875 C 32.203125 -12.289062 30.457031 -9.742188 28.53125 -7.328125 C 26.175781 -4.378906 23.429688 -1.953125 20.296875 -0.046875 C 18.515625 1.023438 16.671875 1.84375 14.765625 2.40625 C 12.867188 2.96875 10.921875 3.210938 8.921875 3.140625 C 6.617188 3.054688 4.566406 2.289062 2.765625 0.84375 C 0.972656 -0.601562 -0.285156 -2.585938 -1.015625 -5.109375 C -1.453125 -6.679688 -1.648438 -8.269531 -1.609375 -9.875 C -1.578125 -11.488281 -1.351562 -13.117188 -0.9375 -14.765625 C -0.445312 -16.597656 0.1875 -18.359375 0.96875 -20.046875 C 1.75 -21.742188 2.644531 -23.40625 3.65625 -25.03125 C 7.25 -30.726562 11.550781 -35.820312 16.5625 -40.3125 C 20.144531 -43.570312 23.882812 -46.554688 27.78125 -49.265625 C 31.6875 -51.984375 35.789062 -54.378906 40.09375 -56.453125 C 41.96875 -57.378906 43.894531 -58.164062 45.875 -58.8125 C 47.863281 -59.46875 49.882812 -59.921875 51.9375 -60.171875 C 54.082031 -60.441406 56.160156 -60.273438 58.171875 -59.671875 C 59.921875 -59.117188 61.234375 -58.035156 62.109375 -56.421875 Z M 32.09375 -4.640625 C 32.101562 -4.828125 32.046875 -4.972656 31.921875 -5.078125 C 31.804688 -5.179688 31.664062 -5.1875 31.5 -5.09375 C 31.113281 -4.894531 30.738281 -4.691406 30.375 -4.484375 C 26.03125 -1.671875 22.378906 1.898438 19.421875 6.234375 C 18.347656 7.785156 17.484375 9.453125 16.828125 11.234375 C 16.328125 12.484375 16.125 13.894531 16.21875 15.46875 C 16.226562 15.488281 16.238281 15.539062 16.25 15.625 C 16.257812 15.84375 16.300781 16.109375 16.375 16.421875 C 16.707031 17.578125 17.238281 18.296875 17.96875 18.578125 C 18.707031 18.867188 19.601562 18.695312 20.65625 18.0625 C 22.144531 17.039062 23.394531 15.765625 24.40625 14.234375 C 25.675781 12.367188 26.742188 10.410156 27.609375 8.359375 C 28.484375 6.378906 29.269531 4.359375 29.96875 2.296875 C 30.675781 0.242188 31.328125 -1.828125 31.921875 -3.921875 C 31.984375 -4.171875 32.039062 -4.398438 32.09375 -4.609375 C 32.09375 -4.628906 32.09375 -4.640625 32.09375 -4.640625 Z M 32.09375 -4.640625 "/></g></g><g transform="translate(222.880257, 208.817217)"><g><path d="M 12.78125 -10.375 C 12.59375 -10.144531 12.398438 -9.945312 12.203125 -9.78125 C 11.535156 -9.1875 10.925781 -8.707031 10.375 -8.34375 C 9.820312 -7.976562 9.160156 -7.59375 8.390625 -7.1875 C 7.253906 -6.632812 6.472656 -6.585938 6.046875 -7.046875 C 5.617188 -7.503906 5.441406 -8.21875 5.515625 -9.1875 C 5.628906 -10.570312 5.660156 -11.570312 5.609375 -12.1875 C 5.566406 -12.8125 5.332031 -12.988281 4.90625 -12.71875 C 4.476562 -12.445312 3.75 -11.679688 2.71875 -10.421875 C 1.28125 -8.703125 0.117188 -6.8125 -0.765625 -4.75 C -0.890625 -4.476562 -1.039062 -4.242188 -1.21875 -4.046875 C -1.40625 -3.847656 -1.664062 -3.722656 -2 -3.671875 C -2.300781 -3.617188 -2.535156 -3.660156 -2.703125 -3.796875 C -2.878906 -3.941406 -2.925781 -4.164062 -2.84375 -4.46875 C -2.40625 -6.070312 -1.945312 -7.671875 -1.46875 -9.265625 C -0.65625 -12.046875 0.132812 -14.800781 0.90625 -17.53125 C 1.488281 -19.582031 2.0625 -21.628906 2.625 -23.671875 C 2.96875 -24.890625 3.300781 -26.101562 3.625 -27.3125 C 3.65625 -27.40625 3.691406 -27.507812 3.734375 -27.625 C 3.753906 -27.757812 3.785156 -27.894531 3.828125 -28.03125 C 3.878906 -28.164062 3.9375 -28.3125 4 -28.46875 C 4.039062 -28.613281 4.148438 -28.742188 4.328125 -28.859375 C 4.503906 -28.972656 4.6875 -29.054688 4.875 -29.109375 C 5.070312 -29.160156 5.226562 -29.175781 5.34375 -29.15625 C 5.5 -29.0625 5.597656 -28.957031 5.640625 -28.84375 C 5.679688 -28.738281 5.679688 -28.617188 5.640625 -28.484375 C 5.617188 -28.453125 5.613281 -28.414062 5.625 -28.375 C 5.5 -27.632812 5.363281 -26.925781 5.21875 -26.25 C 4.320312 -22.476562 3.28125 -18.734375 2.09375 -15.015625 C 2.007812 -14.765625 1.910156 -14.460938 1.796875 -14.109375 C 1.609375 -13.597656 1.441406 -13.097656 1.296875 -12.609375 C 1.148438 -12.128906 1.125 -11.820312 1.21875 -11.6875 C 1.320312 -11.5625 1.648438 -11.734375 2.203125 -12.203125 C 2.359375 -12.367188 2.503906 -12.53125 2.640625 -12.6875 C 3.078125 -13.09375 3.503906 -13.476562 3.921875 -13.84375 C 4.296875 -14.1875 4.738281 -14.410156 5.25 -14.515625 C 6.445312 -14.796875 7.21875 -14.351562 7.5625 -13.1875 C 7.695312 -12.726562 7.753906 -12.257812 7.734375 -11.78125 C 7.722656 -11.300781 7.6875 -10.828125 7.625 -10.359375 C 7.625 -10.234375 7.625 -10.101562 7.625 -9.96875 C 7.550781 -9.144531 7.679688 -8.695312 8.015625 -8.625 C 8.359375 -8.5625 8.789062 -8.703125 9.3125 -9.046875 C 9.84375 -9.390625 10.378906 -9.773438 10.921875 -10.203125 C 11.285156 -10.492188 11.609375 -10.734375 11.890625 -10.921875 C 12.171875 -11.117188 12.390625 -11.222656 12.546875 -11.234375 C 12.835938 -11.234375 12.984375 -11.140625 12.984375 -10.953125 C 12.984375 -10.765625 12.914062 -10.570312 12.78125 -10.375 Z M 12.78125 -10.375 "/></g></g><g transform="translate(236.118875, 206.666951)"><g><path d="M 2.09375 -4.578125 L 2.046875 -4.5625 C 0.359375 -4.3125 -0.804688 -4.503906 -1.453125 -5.140625 C -2.109375 -5.773438 -2.242188 -6.738281 -1.859375 -8.03125 C -1.523438 -9.019531 -1.039062 -9.914062 -0.40625 -10.71875 C -0.1875 -10.988281 0.0390625 -11.21875 0.28125 -11.40625 C 0.53125 -11.59375 0.820312 -11.710938 1.15625 -11.765625 C 1.34375 -11.828125 1.570312 -11.832031 1.84375 -11.78125 C 1.925781 -11.757812 2.015625 -11.742188 2.109375 -11.734375 C 2.285156 -11.796875 2.460938 -11.882812 2.640625 -12 C 2.679688 -12.039062 2.742188 -12.082031 2.828125 -12.125 C 3.179688 -12.34375 3.570312 -12.46875 4 -12.5 C 4.175781 -12.53125 4.359375 -12.5625 4.546875 -12.59375 C 5.253906 -12.59375 5.816406 -12.390625 6.234375 -11.984375 C 6.648438 -11.578125 6.863281 -11.03125 6.875 -10.34375 C 6.875 -9.925781 6.800781 -9.523438 6.65625 -9.140625 C 5.726562 -6.535156 4.242188 -5.019531 2.203125 -4.59375 Z M 3.828125 -11.203125 C 2.910156 -11.097656 2.140625 -10.707031 1.515625 -10.03125 C 0.890625 -9.363281 0.460938 -8.632812 0.234375 -7.84375 C 0.00390625 -7.0625 0.00390625 -6.445312 0.234375 -6 C 0.472656 -5.5625 0.984375 -5.503906 1.765625 -5.828125 C 2.628906 -6.265625 3.347656 -6.921875 3.921875 -7.796875 C 4.503906 -8.671875 4.8125 -9.460938 4.84375 -10.171875 C 4.882812 -10.878906 4.546875 -11.222656 3.828125 -11.203125 Z M 3.828125 -11.203125 "/></g></g><g transform="translate(245.332121, 205.170501)"><g><path d="M 13.921875 -11.625 C 14.179688 -11.601562 14.328125 -11.535156 14.359375 -11.421875 C 14.390625 -11.316406 14.40625 -11.265625 14.40625 -11.265625 C 14.195312 -10.722656 13.953125 -10.222656 13.671875 -9.765625 C 12.992188 -8.722656 12.148438 -7.84375 11.140625 -7.125 C 10.671875 -6.726562 10.09375 -6.46875 9.40625 -6.34375 C 7.875 -6.070312 7.046875 -6.707031 6.921875 -8.25 C 6.929688 -8.59375 6.957031 -8.921875 7 -9.234375 C 7.03125 -9.398438 7.046875 -9.554688 7.046875 -9.703125 C 7.109375 -10.285156 7.101562 -10.601562 7.03125 -10.65625 C 6.957031 -10.71875 6.800781 -10.53125 6.5625 -10.09375 C 6.488281 -10.019531 6.421875 -9.9375 6.359375 -9.84375 C 5.992188 -9.207031 5.613281 -8.582031 5.21875 -7.96875 C 4.488281 -6.800781 3.601562 -5.78125 2.5625 -4.90625 C 1.945312 -4.382812 1.257812 -4.054688 0.5 -3.921875 C -0.738281 -3.648438 -1.53125 -4.101562 -1.875 -5.28125 C -2.007812 -5.769531 -2.066406 -6.253906 -2.046875 -6.734375 C -1.847656 -8.785156 -1.070312 -10.445312 0.28125 -11.71875 C 1.644531 -13 3.332031 -13.65625 5.34375 -13.6875 C 5.925781 -13.601562 6.3125 -13.8125 6.5 -14.3125 C 6.570312 -14.507812 6.644531 -14.707031 6.71875 -14.90625 C 7.101562 -15.914062 7.472656 -16.914062 7.828125 -17.90625 C 8.503906 -19.820312 9.179688 -21.75 9.859375 -23.6875 C 10.429688 -25.207031 10.988281 -26.742188 11.53125 -28.296875 C 11.707031 -28.773438 11.894531 -29.238281 12.09375 -29.6875 C 12.1875 -29.90625 12.328125 -30.050781 12.515625 -30.125 C 12.703125 -30.195312 12.898438 -30.253906 13.109375 -30.296875 C 13.148438 -30.296875 13.203125 -30.300781 13.265625 -30.3125 C 13.492188 -30.351562 13.679688 -30.320312 13.828125 -30.21875 C 13.984375 -30.125 14.046875 -29.976562 14.015625 -29.78125 C 13.941406 -29.269531 13.832031 -28.773438 13.6875 -28.296875 C 12.96875 -25.992188 12.316406 -23.675781 11.734375 -21.34375 C 11.148438 -19.007812 10.582031 -16.664062 10.03125 -14.3125 C 9.832031 -13.5 9.644531 -12.6875 9.46875 -11.875 C 9.226562 -10.914062 9.054688 -9.945312 8.953125 -8.96875 C 8.921875 -8.75 8.921875 -8.535156 8.953125 -8.328125 C 8.984375 -8.128906 9.113281 -7.976562 9.34375 -7.875 C 9.476562 -7.800781 9.609375 -7.800781 9.734375 -7.875 C 9.867188 -7.957031 10.015625 -8.046875 10.171875 -8.140625 C 10.191406 -8.179688 10.21875 -8.210938 10.25 -8.234375 C 11.25 -9.046875 12.132812 -9.976562 12.90625 -11.03125 C 13.03125 -11.195312 13.164062 -11.34375 13.3125 -11.46875 C 13.457031 -11.601562 13.660156 -11.65625 13.921875 -11.625 Z M 5.15625 -11.359375 C 5.257812 -11.585938 5.269531 -11.789062 5.1875 -11.96875 C 5.101562 -12.15625 4.953125 -12.28125 4.734375 -12.34375 C 4.265625 -12.507812 3.800781 -12.460938 3.34375 -12.203125 C 2.207031 -11.648438 1.316406 -10.800781 0.671875 -9.65625 C 0.0351562 -8.519531 -0.21875 -7.34375 -0.09375 -6.125 C -0.0507812 -6.082031 -0.03125 -6.046875 -0.03125 -6.015625 C -0.0078125 -5.910156 0.00390625 -5.804688 0.015625 -5.703125 C 0.210938 -5.160156 0.570312 -5.101562 1.09375 -5.53125 C 1.625 -5.96875 2.1875 -6.628906 2.78125 -7.515625 C 3.382812 -8.398438 3.914062 -9.234375 4.375 -10.015625 C 4.832031 -10.804688 5.09375 -11.253906 5.15625 -11.359375 Z M 5.15625 -11.359375 "/></g></g><g transform="translate(259.837344, 202.814509)"><g><path d="M 8.8125 -8.265625 C 8.25 -7.492188 7.5625 -6.800781 6.75 -6.1875 C 5.9375 -5.582031 5.238281 -5.160156 4.65625 -4.921875 C 4.070312 -4.679688 3.46875 -4.492188 2.84375 -4.359375 C 1.820312 -4.148438 0.859375 -4.132812 -0.046875 -4.3125 C -1.546875 -4.664062 -2.207031 -5.675781 -2.03125 -7.34375 C -1.851562 -8.78125 -1.207031 -9.984375 -0.09375 -10.953125 C 1.019531 -11.921875 2.238281 -12.503906 3.5625 -12.703125 C 3.5625 -12.703125 3.570312 -12.703125 3.59375 -12.703125 C 3.925781 -12.785156 4.253906 -12.816406 4.578125 -12.796875 C 5.109375 -12.691406 5.476562 -12.441406 5.6875 -12.046875 C 5.894531 -11.660156 5.878906 -11.1875 5.640625 -10.625 C 5.078125 -9.375 4.171875 -8.585938 2.921875 -8.265625 C 2.085938 -8.046875 1.265625 -7.957031 0.453125 -8 C 0.304688 -7.988281 0.179688 -7.921875 0.078125 -7.796875 C -0.0234375 -7.679688 -0.078125 -7.539062 -0.078125 -7.375 C -0.148438 -6.34375 0.257812 -5.757812 1.15625 -5.625 C 2.257812 -5.425781 3.34375 -5.601562 4.40625 -6.15625 C 5.632812 -6.769531 6.738281 -7.726562 7.71875 -9.03125 C 8.707031 -10.34375 9.296875 -10.972656 9.484375 -10.921875 C 9.679688 -10.878906 9.773438 -10.675781 9.765625 -10.3125 C 9.691406 -9.71875 9.375 -9.035156 8.8125 -8.265625 Z M 0.96875 -9.859375 C 0.90625 -9.765625 0.867188 -9.664062 0.859375 -9.5625 C 0.847656 -9.457031 0.898438 -9.378906 1.015625 -9.328125 C 1.453125 -9.160156 1.898438 -9.144531 2.359375 -9.28125 C 2.828125 -9.425781 3.203125 -9.671875 3.484375 -10.015625 C 3.773438 -10.367188 3.859375 -10.75 3.734375 -11.15625 C 3.679688 -11.3125 3.585938 -11.398438 3.453125 -11.421875 C 3.316406 -11.441406 3.191406 -11.425781 3.078125 -11.375 C 2.234375 -11.082031 1.53125 -10.578125 0.96875 -9.859375 Z M 0.96875 -9.859375 "/></g></g><g transform="translate(269.935478, 201.174332)"><g><path d="M 7.0625 -9.640625 C 7.375 -10.085938 7.65625 -10.351562 7.90625 -10.4375 C 8.15625 -10.519531 8.328125 -10.503906 8.421875 -10.390625 C 8.523438 -10.285156 8.503906 -10.109375 8.359375 -9.859375 C 7.535156 -8.460938 6.566406 -7.21875 5.453125 -6.125 C 4.335938 -5.03125 3.125 -4.300781 1.8125 -3.9375 C 0.5 -3.582031 -0.425781 -4.179688 -0.96875 -5.734375 C -1.4375 -7.285156 -1 -10.671875 0.34375 -15.890625 C 1.6875 -21.109375 2.71875 -25.367188 3.4375 -28.671875 C 3.5 -28.972656 3.617188 -29.242188 3.796875 -29.484375 C 4.023438 -29.804688 4.34375 -29.921875 4.75 -29.828125 C 4.894531 -29.785156 5.039062 -29.710938 5.1875 -29.609375 C 5.332031 -29.515625 5.410156 -29.296875 5.421875 -28.953125 C 2.054688 -15.085938 0.550781 -7.601562 0.90625 -6.5 C 1.257812 -5.394531 2.035156 -5.234375 3.234375 -6.015625 C 4.429688 -6.804688 5.332031 -7.554688 5.9375 -8.265625 C 6.539062 -8.972656 6.914062 -9.429688 7.0625 -9.640625 Z M 7.0625 -9.640625 "/></g></g><g transform="translate(278.593499, 199.768064)"><g><path d="M 11.15625 -10.875 C 11.457031 -10.769531 11.535156 -10.398438 11.390625 -9.765625 C 11.140625 -9.265625 10.851562 -8.789062 10.53125 -8.34375 C 10.207031 -7.90625 9.835938 -7.492188 9.421875 -7.109375 C 9.390625 -7.109375 9.378906 -7.097656 9.390625 -7.078125 C 9.128906 -6.828125 8.835938 -6.597656 8.515625 -6.390625 C 5.921875 -4.941406 4.421875 -5.296875 4.015625 -7.453125 C 3.046875 -6.296875 2.390625 -5.578125 2.046875 -5.296875 C 1.222656 -4.609375 0.269531 -4.210938 -0.8125 -4.109375 C -1.601562 -4.003906 -2.175781 -4.144531 -2.53125 -4.53125 C -2.882812 -4.925781 -2.957031 -5.523438 -2.75 -6.328125 C -2.425781 -7.578125 -1.863281 -8.734375 -1.0625 -9.796875 C -0.132812 -10.992188 0.953125 -12.007812 2.203125 -12.84375 C 2.859375 -13.320312 3.582031 -13.582031 4.375 -13.625 C 5.175781 -13.707031 5.722656 -13.34375 6.015625 -12.53125 C 6.117188 -12.28125 6.09375 -12.039062 5.9375 -11.8125 C 5.71875 -11.539062 5.429688 -11.4375 5.078125 -11.5 C 5.054688 -11.5 5.019531 -11.5 4.96875 -11.5 C 4.925781 -11.507812 4.890625 -11.523438 4.859375 -11.546875 C 4.460938 -11.960938 4.097656 -12.101562 3.765625 -11.96875 C 3.429688 -11.832031 3.09375 -11.613281 2.75 -11.3125 C 1.132812 -9.988281 0.0507812 -8.328125 -0.5 -6.328125 C -0.539062 -6.234375 -0.554688 -6.132812 -0.546875 -6.03125 C -0.546875 -5.9375 -0.503906 -5.863281 -0.421875 -5.8125 C -0.210938 -5.78125 0.0078125 -5.832031 0.25 -5.96875 C 0.488281 -6.113281 0.71875 -6.300781 0.9375 -6.53125 C 1.164062 -6.769531 1.359375 -6.960938 1.515625 -7.109375 C 1.535156 -7.148438 1.546875 -7.171875 1.546875 -7.171875 C 2.273438 -8.015625 2.984375 -8.875 3.671875 -9.75 C 3.960938 -10.1875 4.378906 -10.472656 4.921875 -10.609375 C 5.679688 -10.734375 6.046875 -10.445312 6.015625 -9.75 C 5.992188 -9.476562 5.960938 -9.207031 5.921875 -8.9375 C 5.796875 -7.789062 5.890625 -7.144531 6.203125 -7 C 6.515625 -6.851562 6.9375 -6.921875 7.46875 -7.203125 C 8.007812 -7.492188 8.523438 -7.953125 9.015625 -8.578125 C 9.503906 -9.210938 9.910156 -9.78125 10.234375 -10.28125 C 10.554688 -10.789062 10.863281 -10.988281 11.15625 -10.875 Z M 11.15625 -10.875 "/></g></g></g><g clip-path="url(#4f65471717)"><g clip-path="url(#b274733633)"><path fill="#000000" d="M 287.066406 188.25 L 291.136719 188.25 L 291.136719 192.320312 L 287.066406 192.320312 Z M 287.066406 188.25 " fill-opacity="1" fill-rule="nonzero"/></g></g><g clip-path="url(#df5f1f5a2e)"><g clip-path="url(#5a91d100c2)"><g clip-path="url(#3c90ad6980)"><path fill="#ffffff" d="M 48.304688 237.839844 L 290.960938 200.984375 L 291.128906 202.097656 L 48.472656 238.953125 Z M 48.304688 237.839844 " fill-opacity="1" fill-rule="nonzero"/></g></g></g></svg>