<svg xmlns="http://www.w3.org/2000/svg" xmlns:xlink="http://www.w3.org/1999/xlink" width="500" zoomAndPan="magnify" viewBox="0 0 375 374.999991" height="500" preserveAspectRatio="xMidYMid meet" version="1.0"><defs><g/><clipPath id="7f3da01704"><path d="M 51.425781 51.425781 L 323.570312 51.425781 L 323.570312 323.570312 L 51.425781 323.570312 Z M 51.425781 51.425781 " clip-rule="nonzero"/></clipPath><clipPath id="6f540129df"><path d="M 187.5 51.425781 C 112.347656 51.425781 51.425781 112.347656 51.425781 187.5 C 51.425781 262.648438 112.347656 323.570312 187.5 323.570312 C 262.648438 323.570312 323.570312 262.648438 323.570312 187.5 C 323.570312 112.347656 262.648438 51.425781 187.5 51.425781 Z M 187.5 51.425781 " clip-rule="nonzero"/></clipPath><clipPath id="1f299f6317"><path d="M 56.441406 56.441406 L 318.191406 56.441406 L 318.191406 318.191406 L 56.441406 318.191406 Z M 56.441406 56.441406 " clip-rule="nonzero"/></clipPath><clipPath id="767616680c"><path d="M 187.496094 56.441406 C 115.117188 56.441406 56.441406 115.117188 56.441406 187.496094 C 56.441406 259.878906 115.117188 318.554688 187.496094 318.554688 C 259.878906 318.554688 318.554688 259.878906 318.554688 187.496094 C 318.554688 115.117188 259.878906 56.441406 187.496094 56.441406 Z M 187.496094 56.441406 " clip-rule="nonzero"/></clipPath><clipPath id="c408ef3cd9"><path d="M 77.167969 184.929688 L 82.304688 184.929688 L 82.304688 190.070312 L 77.167969 190.070312 Z M 77.167969 184.929688 " clip-rule="nonzero"/></clipPath><clipPath id="b38fb64e32"><path d="M 79.738281 184.929688 C 78.316406 184.929688 77.167969 186.082031 77.167969 187.5 C 77.167969 188.917969 78.316406 190.070312 79.738281 190.070312 C 81.15625 190.070312 82.304688 188.917969 82.304688 187.5 C 82.304688 186.082031 81.15625 184.929688 79.738281 184.929688 Z M 79.738281 184.929688 " clip-rule="nonzero"/></clipPath><clipPath id="523d2ff984"><path d="M 292.65625 184.929688 L 297.792969 184.929688 L 297.792969 190.070312 L 292.65625 190.070312 Z M 292.65625 184.929688 " clip-rule="nonzero"/></clipPath><clipPath id="e946716aa1"><path d="M 295.226562 184.929688 C 293.804688 184.929688 292.65625 186.082031 292.65625 187.5 C 292.65625 188.917969 293.804688 190.070312 295.226562 190.070312 C 296.644531 190.070312 297.792969 188.917969 297.792969 187.5 C 297.792969 186.082031 296.644531 184.929688 295.226562 184.929688 Z M 295.226562 184.929688 " clip-rule="nonzero"/></clipPath></defs><g clip-path="url(#7f3da01704)"><g clip-path="url(#6f540129df)"><path stroke-linecap="butt" transform="matrix(0.75, 0, 0, 0.75, 51.426534, 51.426529)" fill="none" stroke-linejoin="miter" d="M 181.4313 -0.000997564 C 81.228168 -0.000997564 -0.00100356 81.228174 -0.00100356 181.431306 C -0.00100356 281.629229 81.228168 362.858401 181.4313 362.858401 C 281.629223 362.858401 362.858395 281.629229 362.858395 181.431306 C 362.858395 81.228174 281.629223 -0.000997564 181.4313 -0.000997564 Z M 181.4313 -0.000997564 " stroke="#ffffff" stroke-width="2" stroke-opacity="1" stroke-miterlimit="4"/></g></g><g clip-path="url(#1f299f6317)"><g clip-path="url(#767616680c)"><path stroke-linecap="butt" transform="matrix(0.75, 0, 0, 0.75, 56.440753, 56.440748)" fill="none" stroke-linejoin="miter" d="M 174.740466 0.000877275 C 78.235251 0.000877275 0.000871275 78.235257 0.000871275 174.740472 C 0.000871275 271.250895 78.235251 349.485275 174.740466 349.485275 C 271.250889 349.485275 349.485269 271.250895 349.485269 174.740472 C 349.485269 78.235257 271.250889 0.000877275 174.740466 0.000877275 Z M 174.740466 0.000877275 " stroke="#ffffff" stroke-width="2" stroke-opacity="1" stroke-miterlimit="4"/></g></g><g clip-path="url(#c408ef3cd9)"><g clip-path="url(#b38fb64e32)"><path fill="#ffffff" d="M 77.167969 184.929688 L 82.304688 184.929688 L 82.304688 190.070312 L 77.167969 190.070312 Z M 77.167969 184.929688 " fill-opacity="1" fill-rule="nonzero"/></g></g><g clip-path="url(#523d2ff984)"><g clip-path="url(#e946716aa1)"><path fill="#ffffff" d="M 292.65625 184.929688 L 297.792969 184.929688 L 297.792969 190.070312 L 292.65625 190.070312 Z M 292.65625 184.929688 " fill-opacity="1" fill-rule="nonzero"/></g></g><g fill="#ffffff" fill-opacity="1"><g transform="translate(101.321735, 258.274954)"><g><path d="M 15.1875 3.890625 L 7.09375 7.59375 L 6.21875 6.671875 L 9.578125 0.375 L 3.078125 3.296875 L 2.203125 2.359375 L 6.4375 -5.484375 L 7.28125 -4.578125 L 3.828125 1.78125 L 10.46875 -1.15625 L 11.21875 -0.34375 L 7.765625 6.046875 L 14.40625 3.046875 Z M 15.1875 3.890625 "/></g></g></g><g fill="#ffffff" fill-opacity="1"><g transform="translate(116.067288, 272.897581)"><g><path d="M 6.5 3.703125 L 5.859375 4.53125 L 1 0.78125 L 6.171875 -5.90625 L 10.890625 -2.265625 L 10.25 -1.4375 L 6.484375 -4.34375 L 4.90625 -2.296875 L 8.265625 0.296875 L 7.625 1.125 L 4.265625 -1.46875 L 2.59375 0.6875 Z M 6.5 3.703125 "/></g></g></g><g fill="#ffffff" fill-opacity="1"><g transform="translate(128.373663, 281.839274)"><g><path d="M 8.21875 -0.375 C 8.5625 0 8.769531 0.410156 8.84375 0.859375 C 8.925781 1.304688 8.828125 1.769531 8.546875 2.25 C 8.191406 2.882812 7.675781 3.234375 7 3.296875 C 6.320312 3.367188 5.523438 3.144531 4.609375 2.625 L 1.09375 0.625 L 5.28125 -6.71875 L 8.578125 -4.84375 C 9.421875 -4.351562 9.972656 -3.8125 10.234375 -3.21875 C 10.503906 -2.625 10.472656 -2.023438 10.140625 -1.421875 C 9.921875 -1.046875 9.640625 -0.769531 9.296875 -0.59375 C 8.953125 -0.414062 8.59375 -0.34375 8.21875 -0.375 Z M 5.84375 -5.265625 L 4.5 -2.921875 L 6.65625 -1.6875 C 7.195312 -1.382812 7.671875 -1.25 8.078125 -1.28125 C 8.484375 -1.3125 8.796875 -1.523438 9.015625 -1.921875 C 9.234375 -2.296875 9.253906 -2.664062 9.078125 -3.03125 C 8.898438 -3.394531 8.539062 -3.726562 8 -4.03125 Z M 5.046875 1.734375 C 5.640625 2.078125 6.140625 2.238281 6.546875 2.21875 C 6.960938 2.195312 7.289062 1.976562 7.53125 1.5625 C 8 0.738281 7.632812 -0.015625 6.4375 -0.703125 L 4.015625 -2.078125 L 2.625 0.359375 Z M 5.046875 1.734375 "/></g></g></g><g fill="#ffffff" fill-opacity="1"><g transform="translate(142.720566, 289.336898)"><g/></g></g><g fill="#ffffff" fill-opacity="1"><g transform="translate(152.313463, 293.141037)"><g><path d="M 3.53125 -7.78125 L 6.953125 -6.796875 C 7.816406 -6.554688 8.535156 -6.171875 9.109375 -5.640625 C 9.679688 -5.109375 10.0625 -4.484375 10.25 -3.765625 C 10.4375 -3.046875 10.414062 -2.289062 10.1875 -1.5 C 9.957031 -0.695312 9.570312 -0.0390625 9.03125 0.46875 C 8.5 0.988281 7.847656 1.320312 7.078125 1.46875 C 6.316406 1.613281 5.503906 1.566406 4.640625 1.328125 L 1.21875 0.34375 Z M 4.859375 0.3125 C 5.515625 0.488281 6.128906 0.519531 6.703125 0.40625 C 7.273438 0.300781 7.765625 0.0546875 8.171875 -0.328125 C 8.578125 -0.722656 8.863281 -1.226562 9.03125 -1.84375 C 9.207031 -2.4375 9.222656 -3 9.078125 -3.53125 C 8.941406 -4.070312 8.660156 -4.539062 8.234375 -4.9375 C 7.804688 -5.34375 7.265625 -5.632812 6.609375 -5.8125 L 4.40625 -6.453125 L 2.65625 -0.328125 Z M 4.859375 0.3125 "/></g></g></g><g fill="#ffffff" fill-opacity="1"><g transform="translate(168.91176, 297.261541)"><g><path d="M 7.484375 -0.046875 L 7.34375 0.984375 L 1.25 0.171875 L 2.375 -8.203125 L 8.296875 -7.421875 L 8.15625 -6.390625 L 3.4375 -7.015625 L 3.09375 -4.4375 L 7.296875 -3.875 L 7.15625 -2.859375 L 2.953125 -3.421875 L 2.59375 -0.703125 Z M 7.484375 -0.046875 "/></g></g></g><g fill="#ffffff" fill-opacity="1"><g transform="translate(184.036034, 298.805842)"><g><path d="M 8.5625 -8.5 L 4.90625 -0.03125 L 3.703125 -0.015625 L -0.0625 -8.453125 L 1.25 -8.453125 L 4.328125 -1.53125 L 7.359375 -8.484375 Z M 8.5625 -8.5 "/></g></g></g><g fill="#ffffff" fill-opacity="1"><g transform="translate(199.733474, 298.214892)"><g><path d="M 7.171875 -2.09375 L 7.328125 -1.0625 L 1.25 -0.1875 L 0.046875 -8.546875 L 5.953125 -9.390625 L 6.09375 -8.359375 L 1.375 -7.6875 L 1.75 -5.125 L 5.96875 -5.71875 L 6.109375 -4.703125 L 1.890625 -4.109375 L 2.28125 -1.390625 Z M 7.171875 -2.09375 "/></g></g></g><g fill="#ffffff" fill-opacity="1"><g transform="translate(214.679712, 295.554415)"><g><path d="M -1.078125 -8.484375 L 0.078125 -8.8125 L 2.09375 -1.671875 L 6.5 -2.90625 L 6.78125 -1.90625 L 1.21875 -0.34375 Z M -1.078125 -8.484375 "/></g></g></g><g fill="#ffffff" fill-opacity="1"><g transform="translate(228.32668, 291.288871)"><g><path d="M 4.671875 -1.96875 C 3.890625 -1.625 3.109375 -1.484375 2.328125 -1.546875 C 1.554688 -1.609375 0.859375 -1.863281 0.234375 -2.3125 C -0.378906 -2.757812 -0.851562 -3.359375 -1.1875 -4.109375 C -1.507812 -4.847656 -1.625 -5.59375 -1.53125 -6.34375 C -1.445312 -7.101562 -1.164062 -7.789062 -0.6875 -8.40625 C -0.21875 -9.03125 0.40625 -9.515625 1.1875 -9.859375 C 1.96875 -10.210938 2.742188 -10.351562 3.515625 -10.28125 C 4.296875 -10.207031 4.992188 -9.945312 5.609375 -9.5 C 6.234375 -9.0625 6.707031 -8.472656 7.03125 -7.734375 C 7.363281 -6.984375 7.484375 -6.226562 7.390625 -5.46875 C 7.304688 -4.707031 7.023438 -4.019531 6.546875 -3.40625 C 6.078125 -2.800781 5.453125 -2.320312 4.671875 -1.96875 Z M 4.25 -2.953125 C 4.820312 -3.210938 5.273438 -3.566406 5.609375 -4.015625 C 5.953125 -4.472656 6.148438 -4.984375 6.203125 -5.546875 C 6.265625 -6.117188 6.171875 -6.6875 5.921875 -7.25 C 5.679688 -7.800781 5.332031 -8.242188 4.875 -8.578125 C 4.414062 -8.921875 3.898438 -9.117188 3.328125 -9.171875 C 2.765625 -9.234375 2.195312 -9.132812 1.625 -8.875 C 1.0625 -8.632812 0.609375 -8.28125 0.265625 -7.8125 C -0.078125 -7.351562 -0.28125 -6.835938 -0.34375 -6.265625 C -0.414062 -5.703125 -0.332031 -5.144531 -0.09375 -4.59375 C 0.15625 -4.03125 0.515625 -3.578125 0.984375 -3.234375 C 1.453125 -2.898438 1.972656 -2.707031 2.546875 -2.65625 C 3.117188 -2.613281 3.6875 -2.710938 4.25 -2.953125 Z M 4.25 -2.953125 "/></g></g></g><g fill="#ffffff" fill-opacity="1"><g transform="translate(243.891103, 283.776239)"><g><path d="M -0.65625 -9.578125 C 0.257812 -10.160156 1.125 -10.398438 1.9375 -10.296875 C 2.75 -10.203125 3.40625 -9.757812 3.90625 -8.96875 C 4.394531 -8.195312 4.507812 -7.421875 4.25 -6.640625 C 3.988281 -5.867188 3.398438 -5.191406 2.484375 -4.609375 L 0.71875 -3.484375 L 2.09375 -1.3125 L 1.0625 -0.671875 L -3.453125 -7.8125 Z M 1.890625 -5.46875 C 2.535156 -5.875 2.941406 -6.320312 3.109375 -6.8125 C 3.285156 -7.3125 3.210938 -7.816406 2.890625 -8.328125 C 2.554688 -8.847656 2.128906 -9.140625 1.609375 -9.203125 C 1.097656 -9.265625 0.519531 -9.09375 -0.125 -8.6875 L -1.859375 -7.578125 L 0.15625 -4.359375 Z M 1.890625 -5.46875 "/></g></g></g><g fill="#ffffff" fill-opacity="1"><g transform="translate(256.985945, 274.880668)"><g><path d="M 4.984375 -5.578125 L 5.65625 -4.78125 L 0.96875 -0.8125 L -4.5 -7.265625 L 0.046875 -11.125 L 0.734375 -10.328125 L -2.890625 -7.25 L -1.21875 -5.265625 L 2.015625 -8.015625 L 2.6875 -7.234375 L -0.546875 -4.484375 L 1.21875 -2.390625 Z M 4.984375 -5.578125 "/></g></g></g><g fill="#ffffff" fill-opacity="1"><g transform="translate(268.276191, 264.693906)"><g><path d="M 4.609375 -5.15625 L 1.453125 -5.53125 C 1.316406 -5.363281 1.203125 -5.226562 1.109375 -5.125 L -0.28125 -3.5625 L 1.640625 -1.84375 L 0.84375 -0.9375 L -5.46875 -6.5625 L -3.28125 -9.03125 C -2.550781 -9.84375 -1.78125 -10.3125 -0.96875 -10.4375 C -0.15625 -10.5625 0.59375 -10.3125 1.28125 -9.6875 C 1.769531 -9.257812 2.078125 -8.773438 2.203125 -8.234375 C 2.328125 -7.691406 2.269531 -7.128906 2.03125 -6.546875 L 5.484375 -6.140625 Z M 0.328125 -5.765625 C 0.835938 -6.335938 1.101562 -6.882812 1.125 -7.40625 C 1.15625 -7.9375 0.941406 -8.398438 0.484375 -8.796875 C 0.0234375 -9.210938 -0.457031 -9.378906 -0.96875 -9.296875 C -1.488281 -9.210938 -2.003906 -8.882812 -2.515625 -8.3125 L -3.890625 -6.78125 L -1.046875 -4.234375 Z M 0.328125 -5.765625 "/></g></g></g><g fill="#ffffff" fill-opacity="1"><g transform="translate(111.788313, 113.6149)"><g><path d="M 4.171875 -15.125 L 7.71875 -6.953125 L 6.78125 -6.09375 L 0.546875 -9.578125 L 3.34375 -3.015625 L 2.390625 -2.15625 L -5.359375 -6.546875 L -4.453125 -7.375 L 1.84375 -3.78125 L -0.96875 -10.484375 L -0.15625 -11.234375 L 6.203125 -7.671875 L 3.3125 -14.34375 Z M 4.171875 -15.125 "/></g></g></g><g fill="#ffffff" fill-opacity="1"><g transform="translate(127.005079, 100.908535)"><g><path d="M 5.671875 -4.875 L 6.234375 -4 L 1.0625 -0.6875 L -3.515625 -7.796875 L 1.5 -11.015625 L 2.078125 -10.140625 L -1.921875 -7.5625 L -0.53125 -5.375 L 3.046875 -7.671875 L 3.609375 -6.8125 L 0.03125 -4.515625 L 1.515625 -2.203125 Z M 5.671875 -4.875 "/></g></g></g><g fill="#ffffff" fill-opacity="1"><g transform="translate(139.322971, 93.472148)"><g><path d="M 4.484375 -6.890625 C 4.992188 -6.960938 5.453125 -6.894531 5.859375 -6.6875 C 6.265625 -6.488281 6.582031 -6.140625 6.8125 -5.640625 C 7.113281 -4.972656 7.097656 -4.34375 6.765625 -3.75 C 6.429688 -3.164062 5.78125 -2.65625 4.8125 -2.21875 L 1.15625 -0.53125 L -2.375 -8.21875 L 1.0625 -9.796875 C 1.945312 -10.203125 2.707031 -10.335938 3.34375 -10.203125 C 3.988281 -10.066406 4.457031 -9.6875 4.75 -9.0625 C 4.925781 -8.664062 4.984375 -8.28125 4.921875 -7.90625 C 4.867188 -7.53125 4.722656 -7.191406 4.484375 -6.890625 Z M -0.875 -7.8125 L 0.265625 -5.359375 L 2.515625 -6.390625 C 3.078125 -6.648438 3.460938 -6.953125 3.671875 -7.296875 C 3.878906 -7.648438 3.890625 -8.03125 3.703125 -8.4375 C 3.523438 -8.832031 3.234375 -9.0625 2.828125 -9.125 C 2.421875 -9.195312 1.9375 -9.101562 1.375 -8.84375 Z M 4.359375 -3.078125 C 4.984375 -3.367188 5.40625 -3.6875 5.625 -4.03125 C 5.84375 -4.375 5.851562 -4.765625 5.65625 -5.203125 C 5.257812 -6.066406 4.4375 -6.210938 3.1875 -5.640625 L 0.671875 -4.484375 L 1.84375 -1.921875 Z M 4.359375 -3.078125 "/></g></g></g><g fill="#ffffff" fill-opacity="1"><g transform="translate(153.623516, 87.508671)"><g/></g></g><g fill="#ffffff" fill-opacity="1"><g transform="translate(162.818336, 84.734728)"><g><path d="M -0.34375 -8.53125 L 3.140625 -9.203125 C 4.023438 -9.378906 4.84375 -9.359375 5.59375 -9.140625 C 6.34375 -8.921875 6.960938 -8.53125 7.453125 -7.96875 C 7.941406 -7.414062 8.265625 -6.734375 8.421875 -5.921875 C 8.578125 -5.109375 8.53125 -4.351562 8.28125 -3.65625 C 8.03125 -2.957031 7.597656 -2.367188 6.984375 -1.890625 C 6.367188 -1.410156 5.617188 -1.082031 4.734375 -0.90625 L 1.25 -0.234375 Z M 4.484375 -1.9375 C 5.140625 -2.0625 5.703125 -2.300781 6.171875 -2.65625 C 6.640625 -3.019531 6.960938 -3.460938 7.140625 -3.984375 C 7.328125 -4.503906 7.363281 -5.078125 7.25 -5.703125 C 7.132812 -6.316406 6.890625 -6.832031 6.515625 -7.25 C 6.148438 -7.664062 5.6875 -7.953125 5.125 -8.109375 C 4.5625 -8.273438 3.953125 -8.296875 3.296875 -8.171875 L 1.03125 -7.734375 L 2.21875 -1.5 Z M 4.484375 -1.9375 "/></g></g></g><g fill="#ffffff" fill-opacity="1"><g transform="translate(178.872752, 82.179634)"><g><path d="M 7.359375 -1.390625 L 7.40625 -0.34375 L 1.265625 -0.0625 L 0.875 -8.5 L 6.84375 -8.765625 L 6.890625 -7.734375 L 2.125 -7.515625 L 2.25 -4.921875 L 6.5 -5.125 L 6.546875 -4.09375 L 2.296875 -3.890625 L 2.421875 -1.15625 Z M 7.359375 -1.390625 "/></g></g></g><g fill="#ffffff" fill-opacity="1"><g transform="translate(193.277916, 81.965035)"><g><path d="M 3.703125 0.421875 C 3.066406 0.367188 2.460938 0.21875 1.890625 -0.03125 C 1.328125 -0.28125 0.890625 -0.578125 0.578125 -0.921875 L 1.109375 -1.828125 C 1.398438 -1.503906 1.785156 -1.234375 2.265625 -1.015625 C 2.753906 -0.796875 3.265625 -0.660156 3.796875 -0.609375 C 4.492188 -0.546875 5.023438 -0.613281 5.390625 -0.8125 C 5.765625 -1.019531 5.972656 -1.316406 6.015625 -1.703125 C 6.035156 -1.992188 5.957031 -2.238281 5.78125 -2.4375 C 5.601562 -2.644531 5.378906 -2.804688 5.109375 -2.921875 C 4.847656 -3.035156 4.46875 -3.179688 3.96875 -3.359375 C 3.34375 -3.554688 2.84375 -3.75 2.46875 -3.9375 C 2.101562 -4.125 1.796875 -4.390625 1.546875 -4.734375 C 1.296875 -5.078125 1.191406 -5.515625 1.234375 -6.046875 C 1.273438 -6.492188 1.425781 -6.890625 1.6875 -7.234375 C 1.957031 -7.578125 2.34375 -7.832031 2.84375 -8 C 3.34375 -8.175781 3.953125 -8.234375 4.671875 -8.171875 C 5.171875 -8.128906 5.65625 -8.023438 6.125 -7.859375 C 6.59375 -7.691406 6.988281 -7.46875 7.3125 -7.1875 L 6.8125 -6.265625 C 6.488281 -6.515625 6.128906 -6.71875 5.734375 -6.875 C 5.347656 -7.03125 4.960938 -7.125 4.578125 -7.15625 C 3.890625 -7.21875 3.367188 -7.132812 3.015625 -6.90625 C 2.660156 -6.6875 2.46875 -6.378906 2.4375 -5.984375 C 2.40625 -5.703125 2.472656 -5.460938 2.640625 -5.265625 C 2.816406 -5.066406 3.046875 -4.90625 3.328125 -4.78125 C 3.609375 -4.65625 3.988281 -4.515625 4.46875 -4.359375 C 5.082031 -4.148438 5.570312 -3.953125 5.9375 -3.765625 C 6.3125 -3.578125 6.617188 -3.316406 6.859375 -2.984375 C 7.109375 -2.648438 7.210938 -2.21875 7.171875 -1.6875 C 7.128906 -1.25 6.972656 -0.859375 6.703125 -0.515625 C 6.429688 -0.171875 6.039062 0.0820312 5.53125 0.25 C 5.03125 0.425781 4.421875 0.484375 3.703125 0.421875 Z M 3.703125 0.421875 "/></g></g></g><g fill="#ffffff" fill-opacity="1"><g transform="translate(207.045395, 83.644087)"><g><path d="M 2.921875 -8.03125 L 4.109375 -7.78125 L 2.421875 0.5 L 1.234375 0.25 Z M 2.921875 -8.03125 "/></g></g></g><g fill="#ffffff" fill-opacity="1"><g transform="translate(216.896686, 85.871189)"><g><path d="M 8.125 -1.8125 L 9.21875 -1.4375 L 8.171875 1.6875 C 7.660156 1.882812 7.109375 1.984375 6.515625 1.984375 C 5.929688 1.984375 5.351562 1.890625 4.78125 1.703125 C 3.96875 1.429688 3.296875 1.003906 2.765625 0.421875 C 2.242188 -0.148438 1.898438 -0.804688 1.734375 -1.546875 C 1.578125 -2.285156 1.628906 -3.046875 1.890625 -3.828125 C 2.148438 -4.597656 2.566406 -5.234375 3.140625 -5.734375 C 3.722656 -6.242188 4.394531 -6.566406 5.15625 -6.703125 C 5.925781 -6.835938 6.722656 -6.765625 7.546875 -6.484375 C 8.191406 -6.273438 8.738281 -5.976562 9.1875 -5.59375 C 9.644531 -5.207031 9.988281 -4.75 10.21875 -4.21875 L 9.28125 -3.765625 C 8.832031 -4.578125 8.15625 -5.132812 7.25 -5.4375 C 6.632812 -5.644531 6.039062 -5.695312 5.46875 -5.59375 C 4.90625 -5.5 4.40625 -5.265625 3.96875 -4.890625 C 3.539062 -4.515625 3.226562 -4.035156 3.03125 -3.453125 C 2.832031 -2.867188 2.789062 -2.296875 2.90625 -1.734375 C 3.03125 -1.171875 3.289062 -0.675781 3.6875 -0.25 C 4.082031 0.175781 4.582031 0.488281 5.1875 0.6875 C 5.90625 0.925781 6.59375 0.96875 7.25 0.8125 Z M 8.125 -1.8125 "/></g></g></g><g fill="#ffffff" fill-opacity="1"><g transform="translate(231.539549, 91.236445)"><g><path d="M 11.453125 -3.640625 L 7.609375 3.890625 L 6.71875 3.4375 L 5.078125 -4.5 L 2.203125 1.125 L 1.125 0.578125 L 4.96875 -6.953125 L 5.859375 -6.5 L 7.515625 1.40625 L 10.375 -4.203125 Z M 11.453125 -3.640625 "/></g></g></g><g fill="#ffffff" fill-opacity="1"><g transform="translate(245.63148, 99.001949)"><g><path d="M 6.65625 3.421875 L 6.046875 4.28125 L 1.03125 0.734375 L 5.90625 -6.171875 L 10.78125 -2.734375 L 10.1875 -1.875 L 6.296875 -4.625 L 4.796875 -2.5 L 8.265625 -0.046875 L 7.671875 0.78125 L 4.203125 -1.671875 L 2.625 0.5625 Z M 6.65625 3.421875 "/></g></g></g><g fill="#ffffff" fill-opacity="1"><g transform="translate(257.138057, 107.647898)"><g><path d="M 5.046875 4.734375 L 5.5 1.59375 C 5.320312 1.457031 5.1875 1.34375 5.09375 1.25 L 3.5625 -0.1875 L 1.796875 1.6875 L 0.921875 0.859375 L 6.71875 -5.296875 L 9.125 -3.03125 C 9.914062 -2.28125 10.359375 -1.5 10.453125 -0.6875 C 10.554688 0.125 10.289062 0.867188 9.65625 1.546875 C 9.21875 2.015625 8.722656 2.300781 8.171875 2.40625 C 7.617188 2.519531 7.0625 2.445312 6.5 2.1875 L 6 5.640625 Z M 5.765625 0.484375 C 6.316406 1.003906 6.851562 1.28125 7.375 1.3125 C 7.894531 1.351562 8.363281 1.15625 8.78125 0.71875 C 9.195312 0.269531 9.367188 -0.207031 9.296875 -0.71875 C 9.234375 -1.238281 8.925781 -1.757812 8.375 -2.28125 L 6.875 -3.703125 L 4.265625 -0.9375 Z M 5.765625 0.484375 "/></g></g></g><g fill="#ffffff" fill-opacity="1"><g transform="translate(115.33375, 213.21854)"><g><path d="M 5.125 -86.46875 C 6.832031 -86.394531 9.070312 -86.316406 11.84375 -86.234375 C 14.613281 -86.148438 17.34375 -86.109375 20.03125 -86.109375 C 23.851562 -86.109375 27.515625 -86.148438 31.015625 -86.234375 C 34.523438 -86.316406 37.007812 -86.359375 38.46875 -86.359375 C 45.070312 -86.359375 50.550781 -85.421875 54.90625 -83.546875 C 59.257812 -81.671875 62.515625 -79.125 64.671875 -75.90625 C 66.828125 -72.6875 67.90625 -69.082031 67.90625 -65.09375 C 67.90625 -62.65625 67.414062 -60.050781 66.4375 -57.28125 C 65.46875 -54.507812 63.78125 -51.898438 61.375 -49.453125 C 58.96875 -47.015625 55.6875 -45.003906 51.53125 -43.421875 C 47.382812 -41.835938 42.132812 -41.046875 35.78125 -41.046875 L 24.0625 -41.046875 L 24.0625 -43.484375 L 34.5625 -43.484375 C 40.34375 -43.484375 44.757812 -44.398438 47.8125 -46.234375 C 50.863281 -48.066406 52.941406 -50.507812 54.046875 -53.5625 C 55.148438 -56.613281 55.703125 -60.007812 55.703125 -63.75 C 55.703125 -70.1875 54.171875 -75.175781 51.109375 -78.71875 C 48.054688 -82.257812 42.828125 -84.03125 35.421875 -84.03125 C 31.671875 -84.03125 29.222656 -83.335938 28.078125 -81.953125 C 26.941406 -80.566406 26.375 -77.757812 26.375 -73.53125 L 26.375 -12.953125 C 26.375 -10.015625 26.617188 -7.8125 27.109375 -6.34375 C 27.597656 -4.882812 28.554688 -3.910156 29.984375 -3.421875 C 31.410156 -2.929688 33.507812 -2.601562 36.28125 -2.4375 L 36.28125 0 C 34.40625 -0.164062 32.0625 -0.265625 29.25 -0.296875 C 26.4375 -0.335938 23.609375 -0.359375 20.765625 -0.359375 C 17.585938 -0.359375 14.613281 -0.335938 11.84375 -0.296875 C 9.070312 -0.265625 6.832031 -0.164062 5.125 0 L 5.125 -2.4375 C 7.894531 -2.601562 9.992188 -2.929688 11.421875 -3.421875 C 12.847656 -3.910156 13.800781 -4.882812 14.28125 -6.34375 C 14.769531 -7.8125 15.015625 -10.015625 15.015625 -12.953125 L 15.015625 -73.53125 C 15.015625 -76.539062 14.769531 -78.757812 14.28125 -80.1875 C 13.800781 -81.613281 12.847656 -82.585938 11.421875 -83.109375 C 9.992188 -83.640625 7.894531 -83.945312 5.125 -84.03125 Z M 24.546875 -43.109375 C 28.941406 -42.953125 32.398438 -42.769531 34.921875 -42.5625 C 37.453125 -42.363281 39.507812 -42.179688 41.09375 -42.015625 C 42.6875 -41.847656 44.21875 -41.644531 45.6875 -41.40625 C 51.132812 -40.507812 55.0625 -38.859375 57.46875 -36.453125 C 59.875 -34.054688 61.644531 -30.332031 62.78125 -25.28125 L 65.828125 -12.828125 C 66.648438 -9.242188 67.488281 -6.65625 68.34375 -5.0625 C 69.195312 -3.476562 70.519531 -2.726562 72.3125 -2.8125 C 73.695312 -2.894531 74.851562 -3.34375 75.78125 -4.15625 C 76.71875 -4.96875 77.71875 -6.066406 78.78125 -7.453125 L 80.609375 -6.109375 C 78.898438 -3.585938 77.128906 -1.65625 75.296875 -0.3125 C 73.460938 1.03125 70.878906 1.703125 67.546875 1.703125 C 64.535156 1.703125 61.890625 0.804688 59.609375 -0.984375 C 57.328125 -2.773438 55.613281 -6.273438 54.46875 -11.484375 L 51.78125 -23.6875 C 51.050781 -27.195312 50.21875 -30.234375 49.28125 -32.796875 C 48.34375 -35.359375 47.039062 -37.375 45.375 -38.84375 C 43.707031 -40.3125 41.242188 -41.046875 37.984375 -41.046875 L 24.796875 -41.046875 Z M 24.546875 -43.109375 "/></g></g></g><path stroke-linecap="butt" transform="matrix(0.75, 0, 0, 0.75, 129.18776, 144.179683)" fill="none" stroke-linejoin="miter" d="M 103.260077 22.432299 C 110.306952 22.432299 116.010078 23.494799 120.353828 25.614591 C 124.702786 27.708341 128.770495 30.171883 132.562162 33.010424 C 133.994454 34.098966 135.077787 34.640633 135.822579 34.640633 C 137.890287 34.640633 139.254871 31.328133 139.916329 24.703132 L 143.655913 24.703132 C 143.442371 28.729174 143.280913 33.619799 143.176746 39.3698 C 143.072579 45.125009 143.015288 52.718759 143.015288 62.151051 L 139.239246 62.151051 C 138.499662 57.593759 137.582996 53.208342 136.494454 48.9948 C 135.411121 44.750008 133.619454 41.109383 131.12987 38.0573 C 127.97362 34.031258 123.838203 30.901049 118.723619 28.677091 C 113.635077 26.447924 108.37466 25.338549 102.942368 25.338549 C 97.504868 25.338549 92.588201 26.677091 88.192367 29.354174 C 83.791325 32.005216 80.015284 35.833341 76.859033 40.843758 C 73.734033 45.828134 71.317366 51.817717 69.624658 58.812509 C 67.952783 65.81251 67.119449 73.708344 67.119449 82.510428 C 67.119449 102.041679 70.260075 116.343763 76.541325 125.406264 C 82.848617 134.473973 92.629868 139.005223 105.885077 139.005223 C 109.780911 139.005223 113.161119 138.437515 116.020494 137.29689 C 118.911119 136.156264 121.176745 135.041681 122.822578 133.958348 C 124.859037 132.552098 126.145495 131.229181 126.676745 129.979181 C 127.234037 128.734389 127.510078 127.078139 127.510078 125.01043 L 127.510078 109.385429 C 127.510078 104.932304 127.072578 101.619804 126.197578 99.447929 C 125.353828 97.270845 123.760078 95.81772 121.426745 95.072928 C 119.098619 94.302095 115.650703 93.864595 111.093411 93.760428 L 111.093411 90.500011 C 113.025702 90.609387 115.291328 90.687512 117.890286 90.739595 C 120.515286 90.791678 123.25487 90.843762 126.119453 90.901053 C 129.010078 90.953137 131.645495 90.979178 134.030912 90.979178 C 137.609037 90.979178 140.832996 90.927095 143.692371 90.81772 C 146.582996 90.713553 149.01008 90.609387 150.968413 90.500011 L 150.968413 93.760428 C 148.582996 93.864595 146.796538 94.250012 145.60383 94.916678 C 144.411121 95.552095 143.614246 96.84897 143.218413 98.812512 C 142.843413 100.744804 142.661121 103.729179 142.661121 107.755221 L 142.661121 140.000015 L 139.400704 140.000015 C 139.291329 138.145848 138.885079 136.145848 138.166329 133.994806 C 137.478829 131.822931 136.431954 130.734389 135.025704 130.734389 C 134.364245 130.734389 133.702787 130.895847 133.03612 131.213556 C 132.400704 131.531264 131.275704 132.286473 129.66112 133.479181 C 126.051745 136.208348 122.239245 138.354181 118.207994 139.92189 C 114.207994 141.48439 109.551744 142.26564 104.254868 142.26564 C 93.067368 142.26564 83.484034 139.958348 75.510075 135.348973 C 67.530908 130.734389 61.421532 124.098972 57.17674 115.427096 C 52.937157 106.734388 50.817365 96.359387 50.817365 84.296886 C 50.817365 71.604177 53.098615 60.640635 57.655907 51.416676 C 62.213199 42.192717 68.431949 35.062508 76.301742 30.026049 C 84.176742 24.963549 93.161118 22.432299 103.260077 22.432299 Z M 103.260077 22.432299 " stroke="#f6f5f2" stroke-width="7.124731" stroke-opacity="1" stroke-miterlimit="4"/><g fill="#ffffff" fill-opacity="1"><g transform="translate(160.711195, 249.179676)"><g><path d="M 45.921875 -88.1875 C 51.210938 -88.1875 55.488281 -87.390625 58.75 -85.796875 C 62.007812 -84.210938 65.0625 -82.363281 67.90625 -80.25 C 68.96875 -79.4375 69.785156 -79.03125 70.359375 -79.03125 C 71.898438 -79.03125 72.914062 -81.507812 73.40625 -86.46875 L 76.21875 -86.46875 C 76.050781 -83.457031 75.925781 -79.796875 75.84375 -75.484375 C 75.769531 -71.171875 75.734375 -65.472656 75.734375 -58.390625 L 72.921875 -58.390625 C 72.347656 -61.804688 71.65625 -65.101562 70.84375 -68.28125 C 70.03125 -71.457031 68.6875 -74.179688 66.8125 -76.453125 C 64.445312 -79.472656 61.347656 -81.816406 57.515625 -83.484375 C 53.691406 -85.148438 49.75 -85.984375 45.6875 -85.984375 C 41.613281 -85.984375 37.925781 -84.984375 34.625 -82.984375 C 31.332031 -80.992188 28.503906 -78.125 26.140625 -74.375 C 23.773438 -70.632812 21.960938 -66.140625 20.703125 -60.890625 C 19.441406 -55.640625 18.8125 -49.710938 18.8125 -43.109375 C 18.8125 -28.453125 21.171875 -17.722656 25.890625 -10.921875 C 30.617188 -4.128906 37.945312 -0.734375 47.875 -0.734375 C 50.8125 -0.734375 53.359375 -1.160156 55.515625 -2.015625 C 57.671875 -2.867188 59.359375 -3.703125 60.578125 -4.515625 C 62.128906 -5.578125 63.109375 -6.578125 63.515625 -7.515625 C 63.921875 -8.453125 64.125 -9.691406 64.125 -11.234375 L 64.125 -22.96875 C 64.125 -26.300781 63.796875 -28.78125 63.140625 -30.40625 C 62.492188 -32.039062 61.296875 -33.140625 59.546875 -33.703125 C 57.796875 -34.273438 55.207031 -34.601562 51.78125 -34.6875 L 51.78125 -37.125 C 53.25 -37.050781 54.957031 -36.992188 56.90625 -36.953125 C 58.863281 -36.910156 60.921875 -36.867188 63.078125 -36.828125 C 65.242188 -36.785156 67.222656 -36.765625 69.015625 -36.765625 C 71.703125 -36.765625 74.125 -36.804688 76.28125 -36.890625 C 78.4375 -36.972656 80.25 -37.050781 81.71875 -37.125 L 81.71875 -34.6875 C 79.925781 -34.601562 78.582031 -34.316406 77.6875 -33.828125 C 76.789062 -33.335938 76.195312 -32.359375 75.90625 -30.890625 C 75.625 -29.429688 75.484375 -27.195312 75.484375 -24.1875 L 75.484375 0 L 73.046875 0 C 72.960938 -1.382812 72.65625 -2.890625 72.125 -4.515625 C 71.59375 -6.148438 70.800781 -6.96875 69.75 -6.96875 C 69.257812 -6.96875 68.769531 -6.84375 68.28125 -6.59375 C 67.789062 -6.351562 66.9375 -5.785156 65.71875 -4.890625 C 63.03125 -2.847656 60.175781 -1.238281 57.15625 -0.0625 C 54.144531 1.113281 50.644531 1.703125 46.65625 1.703125 C 38.269531 1.703125 31.082031 -0.0234375 25.09375 -3.484375 C 19.113281 -6.941406 14.535156 -11.925781 11.359375 -18.4375 C 8.179688 -24.957031 6.59375 -32.734375 6.59375 -41.765625 C 6.59375 -51.296875 8.300781 -59.519531 11.71875 -66.4375 C 15.144531 -73.363281 19.804688 -78.71875 25.703125 -82.5 C 31.609375 -86.289062 38.347656 -88.1875 45.921875 -88.1875 Z M 45.921875 -88.1875 "/></g></g></g></svg>